<?xml version="1.0" encoding="utf-8"?>
<!-- Generator: Adobe Illustrator 21.1.0, SVG Export Plug-In . SVG Version: 6.00 Build 0)  -->
<svg version="1.1" id="Layer_1" xmlns="http://www.w3.org/2000/svg" xmlns:xlink="http://www.w3.org/1999/xlink" x="0px" y="0px"
	 viewBox="0 0 18 21" style="enable-background:new 0 0 18 21;" xml:space="preserve">
<style type="text/css">
	.st0{fill:#EB523A;}
	.st1{fill:#FFFFFF;}
	.st2{fill-rule:evenodd;clip-rule:evenodd;fill:#5C5C5C;}
	.st3{fill-rule:evenodd;clip-rule:evenodd;fill:#5D5D5D;}
	.st4{fill-rule:evenodd;clip-rule:evenodd;fill:#A7A9AC;}
	.st5{fill:#5D5D5D;}
	.st6{fill:#A7A9AC;}
	.st7{fill:none;}
</style>
<path class="st3" d="M18,15.4c-0.5,1.1-0.7,1.6-1.4,2.5c-0.9,1.3-2.1,3-3.7,3c-1.4,0-1.7-0.9-3.6-0.9c-1.9,0-2.2,0.9-3.6,0.9
	c-1.5,0-2.7-1.5-3.6-2.9C-0.3,14.4-0.6,10,0.9,7.6C2,6,3.7,5,5.3,5C7,5,8,5.9,9.4,5.9c1.3,0,2.1-0.9,4-0.9c1.4,0,2.9,0.8,4,2.1
	C13.9,9.1,14.4,14.1,18,15.4L18,15.4z"/>
<path class="st3" d="M12.8,3.4C13.6,2.5,14.2,1.3,14,0c-1.3,0.1-2.8,0.8-3.7,1.7C9.5,2.5,8.8,3.8,9.1,5C10.5,5,11.9,4.3,12.8,3.4
	L12.8,3.4z"/>
</svg>
