<svg id="Layer_1" data-name="Layer 1" xmlns="http://www.w3.org/2000/svg" viewBox="0 0 28 16"><defs><style>.cls-1{fill:none;}.cls-2{fill:#fff;}</style></defs><title>qb vector</title><circle class="cls-1" cx="23.5" cy="13.5" r="1.5"/><circle class="cls-1" cx="7.5" cy="13.5" r="1.5"/><path class="cls-2" d="M28,9,25,7,21,0H0V13H5.05a2.5,2.5,0,1,0,4.9,0h11.1a2.5,2.5,0,1,0,4.9,0H28ZM7.5,15A1.5,1.5,0,1,1,9,13.5,1.5,1.5,0,0,1,7.5,15ZM17,7V2h3l3,5Zm6.5,8A1.5,1.5,0,1,1,25,13.5,1.5,1.5,0,0,1,23.5,15Z"/></svg>