<svg id="Layer_1" data-name="Layer 1" xmlns="http://www.w3.org/2000/svg" viewBox="0 0 40 26"><defs><style>.cls-1{fill:#ea001b;}.cls-2{fill:#f7a527;}.cls-3{fill:#ff5f01;}</style></defs><title>qb vector</title><path class="cls-1" d="M14.51,13A13,13,0,0,1,20,2.33,12.45,12.45,0,0,0,12.7,0,12.84,12.84,0,0,0,0,13,12.84,12.84,0,0,0,12.7,26,12.45,12.45,0,0,0,20,23.62,13,13,0,0,1,14.51,13Z"/><path class="cls-2" d="M27.21,0A12.45,12.45,0,0,0,20,2.33a13.14,13.14,0,0,1,0,21.29A12.45,12.45,0,0,0,27.21,26,12.84,12.84,0,0,0,39.9,13,12.84,12.84,0,0,0,27.21,0Z"/><path class="cls-3" d="M25.39,13A13,13,0,0,0,20,2.33a13.14,13.14,0,0,0,0,21.29A13,13,0,0,0,25.39,13Z"/></svg>