<?xml version="1.0" encoding="utf-8"?>
<!-- Generator: Adobe Illustrator 21.1.0, SVG Export Plug-In . SVG Version: 6.00 Build 0)  -->
<svg version="1.1" id="Layer_1" xmlns="http://www.w3.org/2000/svg" xmlns:xlink="http://www.w3.org/1999/xlink" x="0px" y="0px"
	 viewBox="0 0 70 71" style="enable-background:new 0 0 70 71;" xml:space="preserve">
<style type="text/css">
	.st0{fill:#EB523A;}
	.st1{fill:#FFFFFF;}
	.st2{fill-rule:evenodd;clip-rule:evenodd;fill:#A7A9AC;}
	.st3{fill:#5D5D5D;}
	.st4{fill:#A7A9AC;}
	.st5{fill-rule:evenodd;clip-rule:evenodd;fill:#5D5D5D;}
	.st6{fill:none;}
	.st7{fill:#FACECF;}
	.st8{fill:#EC5C45;}
	.st9{fill:#FACECE;}
	.st10{fill:#F6B3B5;}
	.st11{fill:#EDBEBF;}
	.st12{fill:#F9CDCF;}
	.st13{fill:none;stroke:#FFFFFF;stroke-width:2;stroke-miterlimit:10;}
</style>
<g>
	<path class="st9" d="M66,50H4c-2.2,0-4-1.8-4-4V4c0-2.2,1.8-4,4-4h62c2.2,0,4,1.8,4,4v42C70,48.2,68.2,50,66,50z"/>
	<rect x="2" y="60" class="st10" width="50" height="2"/>
	<rect x="2" y="68" class="st11" width="38" height="2"/>
	<circle class="st12" cx="64" cy="65" r="6"/>
	<path class="st0" d="M30,8h-6L14,19l6,6l4-4v21h22V21l4,4l6-6L46,8h-6c0,0,0,5-5,5S30,8,30,8L30,8z"/>
</g>
</svg>
