<?xml version="1.0" encoding="utf-8"?>
<!-- Generator: Adobe Illustrator 21.1.0, SVG Export Plug-In . SVG Version: 6.00 Build 0)  -->
<svg version="1.1" id="Layer_1" xmlns="http://www.w3.org/2000/svg" xmlns:xlink="http://www.w3.org/1999/xlink" x="0px" y="0px"
	 viewBox="0 0 70 60" style="enable-background:new 0 0 70 60;" xml:space="preserve">
<style type="text/css">
	.st0{fill:#EB523A;}
	.st1{fill:#FFFFFF;}
	.st2{fill-rule:evenodd;clip-rule:evenodd;fill:#A7A9AC;}
	.st3{fill:#5D5D5D;}
	.st4{fill:#A7A9AC;}
	.st5{fill-rule:evenodd;clip-rule:evenodd;fill:#5D5D5D;}
	.st6{fill:none;}
	.st7{fill:#FACECF;}
	.st8{fill:#EC5C45;}
	.st9{fill:#FACECE;}
	.st10{fill:#F6B3B5;}
	.st11{fill:#EDBEBF;}
	.st12{fill:#F9CDCF;}
	.st13{fill:none;stroke:#FFFFFF;stroke-width:2;stroke-miterlimit:10;}
</style>
<g>
	<rect x="23" y="10" class="st7" width="24" height="50"/>
</g>
<g>
	<polygon class="st7" points="3.1,10 8.1,60 22,60 22,10 	"/>
</g>
<g>
	<polygon class="st7" points="48,10 48,60 61.9,60 66.9,10 	"/>
</g>
<rect x="46" y="10" class="st8" width="2" height="12"/>
<g>
	<polygon class="st8" points="38,25 47,20 56,25 56,48 38,48 	"/>
</g>
<g>
	<circle class="st7" cx="47" cy="27" r="2"/>
</g>
<g>
	<rect x="16" y="5" class="st7" width="38" height="4"/>
</g>
<g>
	<path class="st7" d="M70,4c0-4-4-4-4-4H4c0,0-4,0-4,4s0,5,0,5h15V4h40v5h15C70,9,70,8,70,4z"/>
</g>
</svg>
