<svg id="Layer_1" data-name="Layer 1" xmlns="http://www.w3.org/2000/svg" viewBox="0 0 24 10"><defs><style>.cls-1{fill:#5c5c5c;}</style></defs><title>qb vector</title><rect class="cls-1" x="6" y="4" width="12" height="2" rx="1" ry="1"/><path class="cls-1" d="M7,8H4C2.93,8,2,6.6,2,5s.93-3,2-3h7.18A3.79,3.79,0,0,0,8,0H4C1.79,0,0,2.24,0,5s1.79,5,4,5H8a3.79,3.79,0,0,0,3.18-2H7Z"/><path class="cls-1" d="M20,0H16a3.79,3.79,0,0,0-3.18,2H20c1.07,0,2,1.4,2,3s-.93,3-2,3H12.82A3.79,3.79,0,0,0,16,10h4c2.21,0,4-2.24,4-5S22.21,0,20,0Z"/></svg>