<svg id="Layer_1" data-name="Layer 1" xmlns="http://www.w3.org/2000/svg" viewBox="0 0 40 50"><defs><style>.cls-1{fill:#ef5133;}.cls-2{fill:#d1d3d4;}</style></defs><title>qb vector</title><path class="cls-1" d="M14.12,27.09a3.43,3.43,0,0,1-2.26.66H10V31H8.13V22H12a3.12,3.12,0,0,1,2.13.7,2.72,2.72,0,0,1,.79,2.15A2.79,2.79,0,0,1,14.12,27.09Zm-1.43-3.24a1.52,1.52,0,0,0-1-.3H10V26.2h1.69a1.44,1.44,0,0,0,1-.32,1.32,1.32,0,0,0,.36-1A1.24,1.24,0,0,0,12.69,23.85Z"/><path class="cls-1" d="M22.33,22.19a3,3,0,0,1,1.53,1.14,4,4,0,0,1,.64,1.45,7,7,0,0,1,.17,1.49,6,6,0,0,1-.72,3,3.25,3.25,0,0,1-3,1.68H17.06V22h3.88A4.73,4.73,0,0,1,22.33,22.19Zm-3.45,1.37v5.87h1.74a1.88,1.88,0,0,0,1.86-1.31,4.63,4.63,0,0,0,.29-1.72,4.21,4.21,0,0,0-.43-2.11,1.82,1.82,0,0,0-1.71-.74Z"/><path class="cls-1" d="M27,22h6.42v1.58H28.88v2.07h4v1.56h-4V31H27Z"/><path class="cls-2" d="M27.59,1,39,12.41V46a3,3,0,0,1-3,3H4a3,3,0,0,1-3-3V4A3,3,0,0,1,4,1H27.59M28,0H4A4,4,0,0,0,0,4V46a4,4,0,0,0,4,4H36a4,4,0,0,0,4-4V12L28,0Z"/><path class="cls-2" d="M40,12H32a4,4,0,0,1-4-4V0Z"/></svg>