<?xml version="1.0" encoding="utf-8"?>
<!-- Generator: Adobe Illustrator 21.1.0, SVG Export Plug-In . SVG Version: 6.00 Build 0)  -->
<svg version="1.1" id="Layer_1" xmlns="http://www.w3.org/2000/svg" xmlns:xlink="http://www.w3.org/1999/xlink" x="0px" y="0px"
	 viewBox="0 0 40 29" style="enable-background:new 0 0 40 29;" xml:space="preserve">
<style type="text/css">
	.st0{fill:#EB523A;}
	.st1{fill:#FFFFFF;}
	.st2{fill-rule:evenodd;clip-rule:evenodd;fill:#5C5C5C;}
	.st3{fill-rule:evenodd;clip-rule:evenodd;fill:#5D5D5D;}
	.st4{fill-rule:evenodd;clip-rule:evenodd;fill:#A7A9AC;}
	.st5{fill:#5D5D5D;}
	.st6{fill:#A7A9AC;}
	.st7{fill:none;}
</style>
<path class="st5" d="M19.4,15.5c1.1-1.6,1.7-3.4,1.7-5.5c0-5.3-4.3-9.6-9.6-9.6S2.1,4.7,2.1,10c0,5.3,4.3,9.6,9.6,9.6
	c1.8,0,3.4-0.5,4.9-1.3L17,19h4.8L19.4,15.5z M16.4,10.9L15.8,10H11l3.1,4.6c-0.7,0.5-1.6,0.8-2.5,0.8C9,15.4,6.8,13,6.8,10
	c0-3,2.2-5.4,4.8-5.4S16.5,7,16.5,10C16.5,10.3,16.4,10.6,16.4,10.9z"/>
<polygon class="st5" points="36,21 36,25 4,25 4,21 0,21 0,29 40,29 40,21 "/>
<path class="st5" d="M35.7,10.6C35,9.7,34.2,9.2,33.3,9c1.1-0.5,2.1-1.7,2.1-3.5c0-2.9-2.3-4.5-5.6-4.5h-9.3v3c0,0,0,0,0,0
	c1.1,1.7,1.8,3.7,1.8,5.9c0,1.9-0.5,3.8-1.5,5.5l2.3,3.5h0h7.1c1.9,0,3.5-0.5,4.6-1.4c1.2-0.9,1.8-2.2,1.8-3.7
	C36.7,12.5,36.4,11.4,35.7,10.6z M26,4.6l3.3,0c1.1,0,1.9,0.8,1.9,1.8c0,1-0.7,1.8-1.9,1.8l-3.2,0V4.6z M29.5,15.4H26v-4.2h3.5
	c1.4,0,2.3,0.8,2.3,2.1C31.8,14.6,30.9,15.4,29.5,15.4z"/>
</svg>
