<?xml version="1.0" encoding="utf-8"?>
<!-- Generator: Adobe Illustrator 21.1.0, SVG Export Plug-In . SVG Version: 6.00 Build 0)  -->
<svg version="1.1" id="Layer_1" xmlns="http://www.w3.org/2000/svg" xmlns:xlink="http://www.w3.org/1999/xlink" x="0px" y="0px"
	 viewBox="0 0 640 380" style="enable-background:new 0 0 640 380;" xml:space="preserve">
<style type="text/css">
	.st0{fill:#FED0C8;}
	.st1{fill:none;stroke:#FFFFFF;stroke-width:2;stroke-miterlimit:10;}
	.st2{fill:#EF5133;}
	.st3{fill:#EB523B;}
	.st4{fill:#485154;}
	.st5{fill:#FFFFFF;}
	.st6{fill:none;}
</style>
<rect y="20" class="st0" width="320" height="340"/>
<path class="st2" d="M266,200c-8,0-79.7,0-87.8,0s-8.2,8-8.2,8v7.8l5,0.2l9.4,81h75.3l9.3-81h5v-8C274,208,274,200,266,200z"/>
<polyline class="st1" points="323,75 291,75 291,97 261,97 261,119 231,119 231,141 201,141 201,163 171,163 171,185 141,185 
	141,203 111,203 111,225 81,225 81,247 51,247 51,269 21,269 21,291 0,291 "/>
<rect x="360" class="st0" width="181" height="380"/>
<rect x="400" y="40" class="st5" width="2" height="209"/>
<rect x="498" y="40" class="st5" width="2" height="209"/>
<rect x="400" y="40" class="st5" width="100" height="2"/>
<rect x="400" y="290" class="st5" width="2" height="90"/>
<rect x="498" y="290" class="st5" width="2" height="90"/>
<rect x="400" y="290" class="st5" width="100" height="2"/>
<rect x="400" y="247" class="st5" width="100" height="2"/>
<rect x="320" class="st3" width="40" height="380"/>
<rect x="560" class="st3" width="80" height="380"/>
<path class="st4" d="M455,127c-19-4-26-30-16-37c7-21,43.2-22.7,55-3c15,25,9,55,9,55s10,22,4,49c-5.5,24.6-1,47,13,52
	c-4.5,25.1-36,18-36,18s9.9-41.1-4.4-63.3C465.2,175.4,465,143,465,143S455,137,455,127z"/>
<path class="st3" d="M455,179c-4.9,13.6-20,28-20,28s1,15,10,22c6,4.7,5,14.4,6,25c1,11,5,19,5,19l29-6l4.8-33c0,0,6.5-20.9,3.2-43
	s-17.9-46.6-17.9-46.6l-10.5-9.5c0,0-10.7-11.9-4.4,9.1C463.2,154,457.8,171.3,455,179z"/>
<path class="st5" d="M450,143.1c12,1,11,5.9,11,5.9s11,0,14-5c-3-13-3-26-3-26s-13-8.1-25-25.1c0,14-6.1,34-6.1,34l4,1.1
	C444.9,128,445,142.6,450,143.1z"/>
<path class="st5" d="M426,380l26-107.8l32-6.2c0,0,15,13.4,19,33.9c4.4,22.5-1,80.1-1,80.1H426z"/>
<path class="st2" d="M461,197c0.7,26.4-7,39-7,72c-17,28-25,68-25,68l10,2l33-63l1-38l8-45L461,197z"/>
<rect x="580" y="260" class="st5" width="20" height="40"/>
<circle class="st4" cx="452" cy="114" r="2"/>
<circle class="st0" cx="590" cy="280" r="5"/>
<path class="st5" d="M440,337l-5,30l-7,3c0,0-12-2-6-19c3.8-10.7,7-17,7-17L440,337z"/>
<path class="st3" d="M120,161c0,0,16.5-2.3,29.9,11.6c14.5,15,18.5,33,18.5,53c0,8-4.2,16.6-4,20c2,34-0.8,53,2.6,75.5
	c4,26-56.5,9.5-54.6-6.5c1.7-14.5,3.1-30.3-1.9-46.3S96.9,228,97.4,209.6C98,191,102,173,120,161z"/>
<path class="st4" d="M166,309c11,39,4,71,4,71h-51c0,0,0-8,0-21c-7-16-8.5-28.5-6.6-44.5c0.5-4.2,1-8.4,1.3-12.8
	C129,305,148,309.7,166,309z"/>
<path class="st5" d="M122.1,143.8c0,0-3-9.3-7.4-19.8c-4.5-10.5-9.2-30.4,2.8-38.4c11.9-7.9,35.5-6.4,38.6,9.3
	c2.1,11,4.2,19.1,7.5,27.2c1,2.4-1.7,3.3-4.6,4.3c0.7,8.2,1,18.2-2.9,18.5c-6,0.4-10,6-10,6l-2.6,16.6L149,178c0,0-21.3-1.9-31-14
	C122,154,122.1,143.8,122.1,143.8z"/>
<path class="st4" d="M135,106l1,8c0,0,0,4-3,4c0-6-8-5-8,2s4,10,6,10c-1,11-11,14-11,14l-9-29L135,106z"/>
<path class="st3" d="M109.4,115.6l48-18c0,0-4-36-36-20C97.6,89.6,109.4,115.6,109.4,115.6z"/>
<path class="st3" d="M176,91c0,0,1.4,8.6-8.6,12.6c-14.1,5.7-30,0-30,0L156,91H176z"/>
<circle class="st4" cx="151" cy="112" r="2"/>
<rect x="174" y="216" class="st0" width="96" height="2"/>
<rect x="204" y="217" class="st0" width="2" height="68"/>
<rect x="238" y="217" class="st0" width="2" height="73"/>
<path class="st5" d="M223.5,306.5c3.1,1.9,10.6,5.6,19.6,5.6c12.9,0,18.1-8.2,20.8-14.2c4.5-9.9-2.3-13.9-2.3-13.9l-6.5,9.1h-10.2
	c0,0,0,0,4.8-7.4c2.9-4.4,0.5-8.8-1.4-9.7c-9.4,15.4-17.7,14.3-17.7,14.3S225.6,299.5,223.5,306.5z"/>
<path class="st5" d="M158,230c10,23,6,35,13,41c23,5,36.2,16.1,60,19c2,11-5,16-5,16s-62-3-66-12c-5.3-3.6-11.2-3-15-6
	c-8-18-14.6-37.2-19-52C137,238,151,235,158,230z"/>
<path class="st0" d="M248,210v6h-52v-6H248 M250,208h-56v10h56V208L250,208z"/>
</svg>
