<?xml version="1.0" encoding="utf-8"?>
<!-- Generator: Adobe Illustrator 21.1.0, SVG Export Plug-In . SVG Version: 6.00 Build 0)  -->
<svg version="1.1" id="Layer_1" xmlns="http://www.w3.org/2000/svg" xmlns:xlink="http://www.w3.org/1999/xlink" x="0px" y="0px"
	 viewBox="0 0 640 380" style="enable-background:new 0 0 640 380;" xml:space="preserve">
<style type="text/css">
	.st0{fill:#FED0C8;}
	.st1{fill:none;stroke:#FFFFFF;stroke-width:2;stroke-miterlimit:10;}
	.st2{fill:#EF5133;}
	.st3{fill:#EB523B;}
	.st4{fill:#485154;}
	.st5{fill:#FFFFFF;}
	.st6{fill:none;}
</style>
<path class="st2" d="M106,166c0,0,12.7,0.5,28,11.6c16,11.6,21,20.8,30,34.9c24,37.4,24,37.4,24,37.4s27,12.1,37.8,17.2
	c9.3,4.4,12.2,9.9,12.2,18.2c0,9.7,0,19.4,0,19.4L80,331V166H106z"/>
<path class="st0" d="M175,290c19.9,0,36.1,16.4,36.1,36.6c0,3.9-0.6,7.7-1.8,11.4h-68.6c-1.2-3.7-1.8-7.5-1.8-11.4
	C138.9,306.4,155.1,290,175,290 M175,288c-21,0-38.1,17.3-38.1,38.6c0,4.7,0.8,9.2,2.4,13.4h71.4c1.5-4.2,2.4-8.7,2.4-13.4
	C213.1,305.3,196.1,288,175,288L175,288z"/>
<rect x="320" y="20" class="st0" width="320" height="340"/>
<rect x="0.1" y="20" class="st0" width="79.9" height="340"/>
<rect x="80" y="20" class="st0" width="240" height="80"/>
<rect x="270.1" class="st4" width="9.9" height="380"/>
<rect x="630.1" class="st4" width="9.9" height="380"/>
<rect x="450.1" class="st4" width="9.9" height="380"/>
<rect x="282" y="166" class="st4" width="166" height="10"/>
<rect x="282" y="330" class="st4" width="166" height="10"/>
<polygon class="st2" points="295,210 295,230 300,230 313.8,330 416.2,330 430,230 435,230 435,210 "/>
<rect x="300" y="230" class="st0" width="130" height="2"/>
<rect x="342" y="232" class="st0" width="2" height="98"/>
<rect x="99.1" y="166" class="st0" width="1.9" height="138"/>
<rect x="386" y="232" class="st0" width="2" height="98"/>
<path class="st4" d="M80,304h158c0,0,3,0,3,4s0,20.7,0,20.7s-6,11.3-21,11.3c-11,0-140,0-140,0V304z"/>
<path class="st5" d="M113,204.2c0,0,0,20,0,30.7c0,10.7,12,14.7,12,14.7l54,9.5l-24-37.7c0,0-6.5-13.6-21-15.1
	C113,204.2,113,204.2,113,204.2z"/>
<path class="st5" d="M209.9,278.1l0.1-3.1c0,0,13-1,18,5c5.9,7.1,5.9,19.1,5.9,19.1S223,295,218,290S209.9,278.1,209.9,278.1z"/>
<g>
	<path class="st4" d="M175,355c-14.9,0-27-12.1-27-27s12.1-27,27-27s27,12.1,27,27S189.9,355,175,355z"/>
	<path class="st5" d="M175,302c14.4,0,26,11.6,26,26s-11.6,26-26,26s-26-11.6-26-26S160.6,302,175,302 M175,300
		c-15.4,0-28,12.6-28,28s12.6,28,28,28s28-12.6,28-28S190.4,300,175,300L175,300z"/>
</g>
<circle class="st1" cx="175" cy="328" r="12"/>
<rect x="113" y="262" class="st0" width="12" height="2"/>
<rect x="75" y="262" class="st0" width="12" height="2"/>
<path class="st0" d="M400,222v8h-70v-8H400 M402,220h-74v12h74V220L402,220z"/>
<polygon class="st2" points="295,46 295,66 300,66 313.8,166 416.2,166 430,66 435,66 435,46 "/>
<rect x="300" y="66" class="st0" width="130" height="2"/>
<rect x="342" y="68" class="st0" width="2" height="98"/>
<rect x="386" y="68" class="st0" width="2" height="98"/>
<path class="st0" d="M400,58v8h-70v-8H400 M402,56h-74v12h74V56L402,56z"/>
<rect x="462" y="166" class="st4" width="166" height="10"/>
<rect x="282" class="st4" width="166" height="10"/>
<rect x="462" class="st4" width="166" height="10"/>
<rect x="462" y="330" class="st4" width="166" height="10"/>
<polygon class="st2" points="475,210 475,230 480,230 493.8,330 596.2,330 610,230 615,230 615,210 "/>
<rect x="480" y="230" class="st0" width="130" height="2"/>
<rect x="522" y="232" class="st0" width="2" height="98"/>
<rect x="566" y="232" class="st0" width="2" height="98"/>
<path class="st0" d="M580,222v8h-70v-8H580 M582,220h-74v12h74V220L582,220z"/>
<polygon class="st2" points="475,46 475,66 480,66 493.8,166 596.2,166 610,66 615,66 615,46 "/>
<rect x="480" y="66" class="st0" width="130" height="2"/>
<rect x="522" y="68" class="st0" width="2" height="98"/>
<rect x="566" y="68" class="st0" width="2" height="98"/>
<path class="st0" d="M580,58v8h-70v-8H580 M582,56h-74v12h74V56L582,56z"/>
<path class="st0" d="M183.7,135.6c4.8,0,8.9,2.6,11.6,7.4c2.7,4.9,5.6,7.2,9.1,7.2c2.5,0,4.6-1.2,6.7-2.3c1.8-1,3.5-1.9,5.1-1.9
	c0.2,0,0.4,0,0.6,0c2.3,0.3,5.3,1.6,5.3,9v2h2c4.2,0,7.8,3,8.8,7h-34.1H162c0.4-8,2.9-15.2,7.2-20.5
	C173.3,138.5,178.6,135.6,183.7,135.6 M183.7,133.6c-11.2,0-23.7,12.2-23.7,32.4c9.4,0,24.3,0,38.7,0c14.6,0,28.8,0,36.3,0
	c0-6-5-11-11-11c0-4-0.7-10.1-7-11c-0.3,0-0.6-0.1-0.8-0.1c-4.2,0-7.9,4.2-11.8,4.2c-2.3,0-4.7-1.5-7.3-6.2
	C193.8,136.3,188.9,133.6,183.7,133.6L183.7,133.6z"/>
<path class="st0" d="M220,187.1L220,187.1c2.8,0,5.3,2,7.2,5.8c3,6,6,7.3,8,7.3c1.2,0,4.2-0.5,5.7-5.6c0.2-0.8,0.6-1,1.2-1
	c3,0,9.9,5.5,10.8,14.4h-45.8c0.3-5.7,1.8-11,4.4-14.9C213.9,189.3,217.1,187.1,220,187.1 M220,185.1c-7.3,0-15,10.1-15,24.9
	c12.7,0,40,0,50,0c0-10.7-8.1-18.4-12.9-18.4c-1.5,0-2.6,0.8-3.1,2.4c-0.8,2.7-2.1,4.2-3.8,4.2c-1.9,0-4.1-1.9-6.2-6.2
	C226.6,187.2,223.4,185.1,220,185.1L220,185.1z"/>
</svg>
