<?xml version="1.0" encoding="utf-8"?>
<!-- Generator: Adobe Illustrator 21.1.0, SVG Export Plug-In . SVG Version: 6.00 Build 0)  -->
<svg version="1.1" id="Layer_1" xmlns="http://www.w3.org/2000/svg" xmlns:xlink="http://www.w3.org/1999/xlink" x="0px" y="0px"
	 viewBox="0 0 640 380" style="enable-background:new 0 0 640 380;" xml:space="preserve">
<style type="text/css">
	.st0{fill:#FED0C8;}
	.st1{fill:none;stroke:#FFFFFF;stroke-width:2;stroke-miterlimit:10;}
	.st2{fill:#EF5133;}
	.st3{fill:#EB523B;}
	.st4{fill:#485154;}
	.st5{fill:#FFFFFF;}
	.st6{fill:none;}
</style>
<rect y="20" class="st0" width="640" height="340"/>
<polyline class="st1" points="347,121 301,121 301,145 289,145 289,91 221,91 221,145 205,145 205,183 121.2,183 120,183 89,183 
	89,161 73,161 73,107 11,107 11,161 0,161 "/>
<path class="st2" d="M264,200c-8,0-79.7,0-87.8,0s-8.2,8-8.2,8v7.8l5,0.2l9.4,81h75.3l9.3-81h5v-8C272,208,272,200,264,200z"/>
<path class="st3" d="M119,161c0,0,16.5-2.3,29.9,11.6c14.5,15,18.5,33,18.5,53c0,8-4.2,16.6-4,20c2,34-0.8,53,2.6,75.5
	c4,26-56.5,9.5-54.6-6.5c1.7-14.5,3.1-30.3-1.9-46.3S95.9,228,96.4,209.6C97,191,101,173,119,161z"/>
<path class="st4" d="M165,309c11,39,4,71,4,71h-51c0,0,0-8,0-21c-7-16-8.5-28.5-6.6-44.5c0.5-4.2,1-8.4,1.3-12.8
	C128,305,147,309.7,165,309z"/>
<rect x="172" y="216" class="st0" width="96" height="2"/>
<rect x="203" y="217" class="st0" width="2" height="68"/>
<rect x="235" y="217" class="st0" width="2" height="73"/>
<path class="st5" d="M222.5,306.5c3.1,1.9,10.6,5.6,19.6,5.6c12.9,0,18.1-8.2,20.8-14.2c4.5-9.9-2.3-13.9-2.3-13.9l-6.5,9.1h-10.2
	c0,0,0,0,4.8-7.4c2.9-4.4,0.5-8.8-1.4-9.7c-9.4,15.4-17.7,14.3-17.7,14.3S224.6,299.5,222.5,306.5z"/>
<path class="st5" d="M157,230c10,23,6,35,13,41c23,5,36.2,16.1,60,19c2,11-5,16-5,16s-62-3-66-12c-5.3-3.6-11.2-3-15-6
	c-8-18-14.6-37.2-19-52C136,238,150,235,157,230z"/>
<path class="st0" d="M245,210v6h-50v-6H245 M247,208h-54v10h54V208L247,208z"/>
<path class="st5" d="M122.1,143.9c0,0-3-9.3-7.4-19.8c-4.5-10.5-9.2-30.4,2.8-38.4c11.9-7.9,35.5-6.4,38.6,9.3
	c2.1,11,4.2,19.1,7.5,27.2c1,2.4-1.7,3.3-4.6,4.3c0.7,8.2,1,18.2-2.9,18.5c-6,0.4-10,6-10,6l-2.6,16.6l5.6,10.4c0,0-21.3-1.9-31-14
	C122.1,154.1,122.1,143.9,122.1,143.9z"/>
<path class="st3" d="M639.8,380H320c0,0,0-341,0-360c0-20,20-20,20-20h300L639.8,380z"/>
<path class="st0" d="M510,312c23.9,0,47.1,6.6,67.3,19.1c18.7,11.6,34.1,27.7,44.7,46.9H398c10.6-19.2,26-35.3,44.7-46.9
	C462.9,318.6,486.1,312,510,312 M510,310c-50.2,0-93.7,28.4-115.3,70h230.7C603.7,338.4,560.2,310,510,310L510,310z"/>
<polygon class="st4" points="640,380 316,380 316,340 427,340 593,340 640,340 "/>
<path class="st4" d="M135,106l1,8c0,0,0,4-3,4c0-6-8-5-8,2s4,10,6,10c-1,11-11,14-11,14l-9-29L135,106z"/>
<path class="st3" d="M109.4,115.6l48-18c0,0-4-36-36-20C97.6,89.6,109.4,115.6,109.4,115.6z"/>
<path class="st3" d="M176,91c0,0,1.4,8.6-8.6,12.6c-14.1,5.7-30,0-30,0L156,91H176z"/>
<circle class="st4" cx="151" cy="112" r="2"/>
<polygon class="st5" points="590,164 572,164 572,182 449,182 449,164 430,164 430,200 590,200 "/>
<path class="st5" d="M548.6,139l-17.6,0v-13l17.6,0c5.4,0,8.1,3,8.1,6.5C556.7,136,554.5,139,548.6,139 M531,100l15.7,0
	c4.3,0,6.7,2.8,6.7,6c0,3.6-2.6,6-6.7,6H531V100z M564.4,118.4c5.1-3.7,7.9-8.5,7.9-15.3c0-10.9-8.2-19.1-23.2-19.1H513l0,13.5
	c4.1,5.8,6.5,13.7,6.5,21.9c0,6.7-1.8,13.3-4.8,18.7l10.2,15.2l1.5,1.7h25.3c14.4,0,23.9-8.4,23.9-19.6
	C575.6,127.4,572.6,122.4,564.4,118.4"/>
<g>
	<path class="st5" d="M456.9,119.5c0-11.2,8.5-20.7,20-20.7c11.4,0,20,9.6,20,21.2l-20.1,0l0,1l10.6,16.1c-3,1.9-6.5,3-10.5,3
		C465.5,140.2,456.9,131.4,456.9,119.5 M520.9,155v-0.7l-10.6-15.7c3.3-5.6,5.3-12.2,5.3-19C515.6,98,498.2,82,477,82
		c-21.2,0-38.6,16.2-38.6,37.5c0,21.4,16.2,37.5,38.6,37.5c7,0,14.2-1.8,20.3-6.4l3.2,4.3L520.9,155z"/>
</g>
<rect x="320" y="240" class="st0" width="320" height="2"/>
<rect x="320" y="39" class="st0" width="320" height="2"/>
<rect x="320" y="260" class="st0" width="320" height="2"/>
<rect x="348" y="40" class="st0" width="2" height="300"/>
<circle class="st4" cx="370" cy="284" r="10"/>
<path class="st6" d="M510,342c-31.5,0-59.5,14.9-77.4,38h154.9C569.5,356.9,541.5,342,510,342z"/>
<path class="st5" d="M510,342c31.5,0,59.5,14.9,77.4,38h2.6c-18.2-24.3-47.3-40-80-40c-32.7,0-61.8,15.7-80,40h2.6
	C450.5,356.9,478.5,342,510,342z"/>
</svg>
