<svg id="Layer_1" data-name="Layer 1" xmlns="http://www.w3.org/2000/svg" viewBox="0 0 21 17"><defs><style>.cls-1{fill:#fff;}</style></defs><title>qb vector</title><path class="cls-1" d="M21,2a8.87,8.87,0,0,1-2.48.66A4.25,4.25,0,0,0,20.42.31a8.64,8.64,0,0,1-2.74,1A4.34,4.34,0,0,0,14.54,0a4.27,4.27,0,0,0-4.31,4.24,3.89,3.89,0,0,0,.11,1A12.32,12.32,0,0,1,1.46.78,4.17,4.17,0,0,0,.88,2.91,4.23,4.23,0,0,0,2.8,6.44,4.35,4.35,0,0,1,.85,5.91V6A4.26,4.26,0,0,0,4.3,10.12a4.54,4.54,0,0,1-1.13.15,4.28,4.28,0,0,1-.81-.08,4.31,4.31,0,0,0,4,2.95A8.74,8.74,0,0,1,1,15a9,9,0,0,1-1-.06A12.33,12.33,0,0,0,6.6,16.8,12.08,12.08,0,0,0,18.86,4.73c0-.18,0-.37,0-.55A8.72,8.72,0,0,0,21,2Z"/></svg>