<svg id="Layer_1" data-name="Layer 1" xmlns="http://www.w3.org/2000/svg" viewBox="0 0 22 13"><defs><style>.cls-1{fill:#fff;fill-rule:evenodd;}</style></defs><title>qb vector</title><path id="Logo" class="cls-1" d="M21.49.88c.15-.51,0-.88-.72-.88H18.4a1,1,0,0,0-1,.68,20,20,0,0,1-2.91,4.89c-.55.56-.8.73-1.11.73-.15,0-.37-.18-.37-.68V.88C13,.27,12.8,0,12.3,0H8.58A.57.57,0,0,0,8,.55c0,.58.85.71.94,2.33V6.4c0,.77-.14.91-.44.91-.8,0-2.76-3-3.92-6.38C4.33.27,4.1,0,3.5,0H1.13C.45,0,.31.33.31.68c0,.63.8,3.77,3.74,7.93C6,11.44,8.77,13,11.29,13,12.79,13,13,12.64,13,12V9.91c0-.68.14-.82.62-.82s1,.18,2.36,1.54C17.57,12.25,17.83,13,18.74,13h2.37c.68,0,1-.34.82-1a10.26,10.26,0,0,0-2-2.8c-.55-.66-1.38-1.37-1.63-1.72s-.25-.66,0-1.06C18.3,6.38,21.19,2.28,21.49.88Z"/></svg>