<svg id="Layer_1" data-name="Layer 1" xmlns="http://www.w3.org/2000/svg" viewBox="0 0 20 20"><defs><style>.cls-1{fill:#fff;}</style></defs><title>qb vector</title><path class="cls-1" d="M10,0A10,10,0,0,0,0,10a9.89,9.89,0,0,0,1.65,5.5L0,20l4.5-1.65A9.89,9.89,0,0,0,10,20,10,10,0,0,0,10,0Zm4.87,13.56c-.2.3-1.14,1.44-1.54,1.44s-2,0-5.21-3.24S5,7,5,6.63,6.14,5.29,6.44,5.09a.56.56,0,0,1,.69,0c.1.2,1.24,1.94,1.39,2.14a.65.65,0,0,1,0,.6c-.1.2-.6,1-.6,1a10.23,10.23,0,0,0,1.49,1.74,10.21,10.21,0,0,0,1.74,1.49s.84-.45,1-.6.45-.15.6,0,2,1.29,2.13,1.39S15.07,13.26,14.87,13.56Z"/></svg>