<?xml version="1.0" encoding="utf-8"?>
<!-- Generator: Adobe Illustrator 21.1.0, SVG Export Plug-In . SVG Version: 6.00 Build 0)  -->
<svg version="1.1" id="Layer_1" xmlns="http://www.w3.org/2000/svg" xmlns:xlink="http://www.w3.org/1999/xlink" x="0px" y="0px"
	 viewBox="0 0 20 20" style="enable-background:new 0 0 20 20;" xml:space="preserve">
<style type="text/css">
	.st0{fill:#EB523A;}
	.st1{fill:#FFFFFF;}
	.st2{fill-rule:evenodd;clip-rule:evenodd;fill:#5C5C5C;}
	.st3{fill-rule:evenodd;clip-rule:evenodd;fill:#5D5D5D;}
	.st4{fill-rule:evenodd;clip-rule:evenodd;fill:#A7A9AC;}
	.st5{fill:#5D5D5D;}
	.st6{fill:#A7A9AC;}
	.st7{fill:none;}
</style>
<path class="st5" d="M10,0.1c-5.5,0-10,4.5-10,10c0,2,0.6,3.9,1.7,5.5L0,20l4.5-1.6C6.1,19.4,8,20,10,20c5.5,0,10-4.5,10-10
	C20,4.6,15.5,0.1,10,0.1z M14.8,13.6c-0.2,0.3-1.1,1.4-1.5,1.4c-0.3,0-2,0-5.2-3.2C5,8.7,5,7.1,4.9,6.7c0-0.4,1.1-1.3,1.4-1.5
	C6.7,5,7,5,7,5.2c0.1,0.2,1.2,1.9,1.4,2.1c0.1,0.1,0,0.4,0,0.6C8.3,8.1,7.8,9,7.8,9s0.4,0.6,1.5,1.7c1.2,1.1,1.8,1.5,1.8,1.5
	s0.9-0.4,1-0.6c0.2-0.1,0.5-0.1,0.6,0c0.2,0.1,2,1.3,2.1,1.4C15,13,15,13.3,14.8,13.6z"/>
</svg>
